<?xml version="1.0" encoding="UTF-8" standalone="no"?>
<svg width="60px" height="60px" viewBox="0 0 60 60" version="1.1" xmlns="http://www.w3.org/2000/svg" xmlns:xlink="http://www.w3.org/1999/xlink">
    <!-- Generator: Sketch 3.8.3 (29802) - http://www.bohemiancoding.com/sketch -->
    <title>Group 2</title>
    <desc>Created with Sketch.</desc>
    <defs></defs>
    <g id="Page-1" stroke="none" stroke-width="1" fill="none" fill-rule="evenodd">
        <g id="Desktop-Copy-2" transform="translate(-82.000000, -399.000000)">
            <g id="DENNIS" transform="translate(82.000000, 399.000000)">
                <g id="Group-2">
                    <circle id="Oval-3" fill="#4D6496" cx="30" cy="30" r="30"></circle>
                    <path d="M38.75,38.90625 C38.75,41.2359375 36.689375,43.125 34.1478125,43.125 L26.4771875,43.125 C23.935625,43.125 21.875,41.2359375 21.875,38.90625 L21.875,36.09375 C21.875,34.100625 23.3871875,32.44125 25.4140625,31.9996875 C26.796875,33.0975 28.484375,33.75 30.3125,33.75 C32.140625,33.75 33.828125,33.0975 35.2109375,31.9996875 C37.2378125,32.44125 38.75,34.100625 38.75,36.09375 L38.75,38.90625 L38.75,38.90625 Z M23.75,24.375 C23.75,20.233125 26.688125,16.875 30.3125,16.875 C33.936875,16.875 36.875,20.233125 36.875,24.375 C36.875,28.516875 33.936875,31.875 30.3125,31.875 C26.688125,31.875 23.75,28.516875 23.75,24.375 L23.75,24.375 Z M36.8290625,30.3309375 C38.028125,28.7109375 38.75,26.63625 38.75,24.375 C38.75,19.198125 34.9728125,15 30.3125,15 C25.6521875,15 21.875,19.198125 21.875,24.375 C21.875,26.63625 22.596875,28.7109375 23.7959375,30.3309375 C21.5928125,31.0921875 20,33.1621875 20,35.625 L20,39.375 C20,42.4809375 22.5190625,45 25.625,45 L35,45 C38.1059375,45 40.625,42.4809375 40.625,39.375 L40.625,35.625 C40.625,33.1621875 39.0321875,31.0921875 36.8290625,30.3309375 L36.8290625,30.3309375 Z" id="Fill-177" fill="#FFFFFF"></path>
                </g>
            </g>
        </g>
    </g>
</svg>