<?xml version="1.0" encoding="UTF-8" standalone="no"?>
<svg width="80px" height="80px" viewBox="0 0 80 80" version="1.1" xmlns="http://www.w3.org/2000/svg" xmlns:xlink="http://www.w3.org/1999/xlink">
    <!-- Generator: Sketch 3.8.3 (29802) - http://www.bohemiancoding.com/sketch -->
    <title>logo</title>
    <desc>Created with Sketch.</desc>
    <defs></defs>
    <g id="Page-1" stroke="none" stroke-width="1" fill="none" fill-rule="evenodd">
        <g id="Desktop-Copy-2" transform="translate(-42.000000, -48.000000)">
            <g id="logo" transform="translate(82.000000, 88.000000) rotate(-360.000000) translate(-82.000000, -88.000000) translate(42.000000, 48.000000)">
                <path d="M12.078676,68.6426481 C4.62710682,61.3775804 -7.10542736e-15,51.2291496 -7.10542736e-15,40 C-7.10542736e-15,17.90861 17.90861,1.42108547e-14 40,1.42108547e-14 C62.09139,1.42108547e-14 80,17.90861 80,40 C80,62.09139 62.09139,80 40,80 C39.4587471,80 38.920005,79.9892498 38.3839756,79.9679513 L38.4,80 L8.40174332,80 C7.29621101,80 6.80351006,79.1929799 7.29451376,78.2109725 L12.078676,68.6426481 L12.078676,68.6426481 Z" id="Combined-Shape" fill="#4D6496"></path>
                <g id="Group-6" transform="translate(20.000000, 26.000000)" fill="#FFFFFF">
                    <rect id="Rectangle-11" x="0" y="0" width="40" height="3" rx="1.5"></rect>
                    <rect id="Rectangle-11-Copy" x="10" y="8" width="20" height="3" rx="1.5"></rect>
                    <rect id="Rectangle-11-Copy-3" x="10" y="24" width="20" height="3" rx="1.5"></rect>
                    <rect id="Rectangle-11-Copy-2" x="0" y="16" width="40" height="3" rx="1.5"></rect>
                </g>
            </g>
        </g>
    </g>
</svg>